<svg width="1200" height="320" viewBox="0 0 1200 320" fill="none" xmlns="http://www.w3.org/2000/svg">
  <rect width="1200" height="320" rx="28" fill="#0F0A19"/>
  <rect x="18" y="18" width="1164" height="284" rx="20" fill="url(#bg)"/>
  <circle cx="170" cy="160" r="86" fill="url(#orb)"/>
  <path d="M142 171C142 145.49 162.49 125 188 125H209C217.837 125 225 132.163 225 141V142C225 150.837 217.837 158 209 158H194C185.163 158 178 165.163 178 174V175C178 183.837 185.163 191 194 191H226" stroke="white" stroke-width="18" stroke-linecap="round"/>
  <path d="M105 139C115.5 127.5 129 120 146 120" stroke="#C4B5FD" stroke-width="16" stroke-linecap="round"/>
  <path d="M109 192C118.5 205 132.5 213 149 214" stroke="#DDD6FE" stroke-width="16" stroke-linecap="round"/>
  <text x="320" y="145" fill="white" font-family="Segoe UI, Arial, sans-serif" font-size="72" font-weight="700">BerryProtocol</text>
  <text x="322" y="198" fill="#C4B5FD" font-family="Segoe UI, Arial, sans-serif" font-size="28" font-weight="500">Public WhatsApp Web SDK by BerrySDK</text>
  <defs>
    <linearGradient id="bg" x1="60" y1="40" x2="1140" y2="280" gradientUnits="userSpaceOnUse">
      <stop stop-color="#201036"/>
      <stop offset="1" stop-color="#120A22"/>
    </linearGradient>
    <radialGradient id="orb" cx="0" cy="0" r="1" gradientUnits="userSpaceOnUse" gradientTransform="translate(170 160) rotate(90) scale(86)">
      <stop stop-color="#8B5CF6"/>
      <stop offset="1" stop-color="#5B21B6"/>
    </radialGradient>
  </defs>
</svg>
